<svg xmlns="http://www.w3.org/2000/svg" viewBox="0 0 500 130" width="500" height="130">
  <defs>
    <linearGradient id="g" x1="0" y1="0" x2="1" y2="1">
      <stop offset="0%" stop-color="#2563eb"/>
      <stop offset="100%" stop-color="#7c3aed"/>
    </linearGradient>
    <linearGradient id="gw" x1="0" y1="0" x2="1" y2="1">
      <stop offset="0%" stop-color="#60a5fa"/>
      <stop offset="100%" stop-color="#a78bfa"/>
    </linearGradient>
  </defs>
  <!-- Waveform -->
  <g fill="none" stroke-linecap="round" stroke-linejoin="round">
    <polyline points="10,75 30,75 30,35 50,35 50,95 70,95 70,55 90,55 90,75 110,75 110,35 130,35 130,95 150,95 150,55 170,55 170,75 190,75" stroke="url(#gw)" stroke-width="3"/>
    <polyline points="10,100 30,100 30,60 50,60 50,120 70,120 70,80 90,80 90,100 110,100 110,60 130,60 130,120 150,120 150,80 170,80 170,100 190,100" stroke="url(#g)" stroke-width="3" opacity="0.4"/>
    <line x1="10" y1="120" x2="190" y2="120" stroke="#374151" stroke-width="1" opacity="0.2"/>
    <line x1="10" y1="35" x2="190" y2="35" stroke="#374151" stroke-width="1" stroke-dasharray="4,4" opacity="0.15"/>
    <line x1="10" y1="55" x2="190" y2="55" stroke="#374151" stroke-width="1" stroke-dasharray="4,4" opacity="0.15"/>
    <line x1="10" y1="75" x2="190" y2="75" stroke="#374151" stroke-width="1" stroke-dasharray="4,4" opacity="0.15"/>
    <line x1="10" y1="95" x2="190" y2="95" stroke="#374151" stroke-width="1" stroke-dasharray="4,4" opacity="0.15"/>
  </g>
  <!-- Text -->
  <text x="220" y="72" font-family="system-ui, -apple-system, sans-serif" font-size="44" font-weight="700" fill="url(#g)" letter-spacing="1">Veri</text>
  <text x="335" y="72" font-family="system-ui, -apple-system, sans-serif" font-size="44" font-weight="300" fill="#9ca3af" letter-spacing="1">Gen</text>
  <text x="220" y="100" font-family="system-ui, -apple-system, sans-serif" font-size="13" fill="#6b7280" letter-spacing="4">VERILOG CODING AGENT</text>
</svg>
